<svg width="1747" height="1371" viewBox="0 0 1747 1371" fill="none" xmlns="http://www.w3.org/2000/svg">
<path d="M845 0.33219C800.3 3.53191 763 10.4313 723.2 22.9302L709.9 27.1298L722.7 33.2293C729.7 36.629 740.7 42.3285 747 45.9281C762.2 54.6274 795 75.4255 805.8 83.3248L814.5 89.6243L817.3 86.4246C818.9 84.6247 828.3 72.4258 838.3 59.227C864.2 24.83 873.1 13.631 874 13.931C874.5 14.131 888.2 31.1295 904.5 51.7276C920.9 72.3258 934.3 89.3243 934.5 89.5243C934.7 89.7243 939.8 86.2246 945.9 81.725C970 64.2265 1003.7 43.1284 1023.7 32.9293C1029.9 29.8296 1035 26.9298 1035 26.6299C1035 26.3299 1032.6 25.33 1029.8 24.53C1026.9 23.6301 1018.9 21.3303 1012 19.3305C986.1 11.6312 956.5 5.73171 928.5 2.63199C911.2 0.732155 859.8 -0.667721 845 0.33219Z" fill="white"/>
<path d="M642.5 56.6275C595.3 81.2253 556.1 110.523 517 150.319C492.6 175.217 476.7 194.715 458.3 222.213C447.7 238.111 448 237.611 451.5 235.212C457.3 231.412 487.6 214.413 497.1 209.614C547.1 184.516 589.9 172.717 651.5 167.118C681.7 164.318 729.3 164.918 753.8 168.318L758 168.918V133.921V98.9237L738.8 87.9247C705.9 69.2264 664.3 48.7282 659.2 48.7282C658.2 48.7282 650.8 52.3279 642.5 56.6275Z" fill="white"/>
<path d="M1076.5 54.1271C1057.3 61.9264 1018.4 81.9247 994.8 96.3234L990 99.2231V134.12V169.017L994.6 168.317C1019.7 164.917 1066.6 164.317 1096.5 167.117C1171.7 174.017 1221.5 190.415 1287.8 229.912C1292.4 232.711 1296.3 234.711 1296.6 234.511C1297.1 233.911 1281.2 210.513 1271.5 197.714C1226.9 138.82 1169.8 90.4239 1105.5 57.1269L1089.5 48.8276L1076.5 54.1271Z" fill="white"/>
<path d="M847 101.223C832.4 120.722 820.1 136.62 819.7 136.62C819.2 136.72 814 132.321 808.2 127.021L797.5 117.222L797.2 146.119C797.1 162.018 797.1 175.117 797.3 175.317C797.4 175.517 802.5 176.317 808.5 177.217C830.5 180.516 850.3 186.316 866.2 194.315C869.9 196.215 873.6 197.715 874.3 197.715C875 197.715 879.9 195.915 885.1 193.715C899 187.716 921.6 180.316 937.3 176.717L951 173.517V146.519V119.522L946.8 122.921C933.6 133.421 929 136.82 928.2 136.32C927.8 136.12 915.5 120.022 901 100.823C886.5 81.5252 874.4 65.7266 874.1 65.7266C873.8 65.8266 861.6 81.7252 847 101.223Z" fill="white"/>
<path d="M687.5 205.414C665.5 206.014 631.2 209.613 612 213.213C584.1 218.512 550.4 228.712 528 238.711C493.6 254.009 457.7 276.207 427.3 300.905C409.1 315.704 409.4 315.404 405 327.003C375.4 405.896 366.8 497.688 381.1 583.18C385.3 608.578 394.8 646.574 396.1 643.075C396.4 642.075 400.4 630.076 404.8 616.577C442 503.287 510.3 412.795 595.6 363.8C606.7 357.5 629.5 347.001 640.5 343.301C665.3 334.802 685.3 331.302 709 331.402C733.6 331.402 746.9 334.102 773.3 344.501L785.2 349.201L784.6 353.6C784.3 356 781.6 368.999 778.6 382.598C775.6 396.097 772.9 408.596 772.6 410.195C772.2 411.895 769.4 416.395 766.4 420.195C737.2 456.691 713.6 504.287 701.6 550.683C694.7 577.481 692 596.879 691.3 624.976C690.8 643.475 690.5 647.674 689.4 647.274C688.6 646.974 676.5 639.075 662.5 629.676C648.5 620.377 637 613.177 637 613.777C637 615.577 642.7 634.576 647.1 647.274C673.2 723.068 715.3 799.561 763.9 859.656C795.2 898.352 836 938.149 872.6 965.846C875.1 967.746 918.4 930.149 944.5 903.452C1021 825.359 1072.6 738.466 1105 633.076C1107.8 624.176 1110 616.477 1110 615.777C1110 614.577 1098.4 621.277 1081.6 632.176C1075.5 636.075 1067.9 640.775 1064.8 642.475L1059.1 645.775L1058.6 642.475C1058.3 640.675 1057.8 634.476 1057.5 628.676C1054.5 575.081 1034.9 510.687 1006.2 460.191C1001.6 451.992 983.5 424.394 978 417.195C975.2 413.495 974.6 410.995 969.5 382.298C966.5 365.199 964 350.901 964 350.401C964 349.201 976.7 343.501 987.5 339.902C1017.7 329.603 1048.6 328.603 1081.5 336.802C1133.8 349.901 1194.8 389.497 1242.2 440.993C1294.3 497.788 1330.5 563.282 1348.8 633.976L1351.6 644.775L1354.2 635.475C1368.5 584.88 1374.7 529.885 1372.2 477.39C1369.7 426.194 1362.8 388.297 1347.3 341.202L1340.7 321.203L1333.3 314.004C1319.1 300.205 1288.1 276.207 1267.2 262.809C1228.7 238.211 1187.9 221.912 1146.8 214.813C1113.1 209.013 1081.5 206.314 1045.5 206.414C1020.3 206.414 988.5 208.313 980.2 210.413C978.4 210.813 980.6 212.313 991.2 217.613C1014.6 229.412 1033.8 243.31 1053 262.609C1064.7 274.408 1079.2 291.706 1077.2 291.706C1076.8 291.706 1072.3 290.806 1067.3 289.706C1049.8 285.907 1023.9 285.507 1006.2 288.706C977.6 293.806 949.3 307.905 927.6 327.803L922.4 332.602L925.6 361.4C927.4 377.198 928.9 390.997 928.9 391.897C929 393.597 925.7 393.697 872.5 393.697C841.4 393.697 816 393.597 816 393.397C816 393.297 818 380.098 820.5 364.2L825 335.202L815.4 325.903C796.6 307.605 772 294.606 746 289.206C727.6 285.307 700.8 285.507 682 289.606C676.9 290.806 672.5 291.606 672.4 291.406C671.7 290.806 684.7 275.707 693.8 266.308C712.7 247.11 736.7 229.312 760.1 217.213C770.2 212.013 771.8 210.913 769.8 210.413C761.1 208.213 715.6 204.514 702.5 204.914C699.2 205.014 692.5 205.214 687.5 205.414ZM828 456.991L855.5 469.29L855.8 509.287L856 549.283L850.8 552.383C828 566.182 801.7 567.482 779.9 556.083C771.3 551.583 761.7 543.584 756.2 536.384L751.8 530.785L753.5 525.485C759.5 507.187 769.3 486.789 779.7 470.69C785.4 461.991 798.9 444.692 799.9 444.792C800.2 444.792 812.9 450.292 828 456.991ZM955.4 452.292C969.7 469.29 984.6 494.788 992.5 516.186C998.5 532.285 998.7 531.085 988.3 541.384C973.3 556.283 959.5 562.582 939.5 563.382C930.6 563.782 926.8 563.482 919.5 561.782C910.5 559.582 895.4 552.883 892.5 549.683C891.2 548.183 891 542.784 891.2 508.687L891.5 469.39L919.5 457.191C934.9 450.392 948 444.992 948.5 445.092C949.1 445.192 952.1 448.492 955.4 452.292ZM1017.9 621.777C1018.5 628.076 1019 642.275 1019 653.274C1019 682.271 1015.8 706.669 1008.5 733.667C1005.6 744.466 998.7 765.464 997.8 766.164C996 767.464 972.6 776.363 962.6 779.563C934.5 788.462 906.7 792.662 875 792.662C833.6 792.662 795.8 785.162 760.5 769.864L751.6 765.964L748.3 757.565C734.7 722.968 727.9 683.771 729.4 647.674C730.1 630.876 732.8 608.678 734.2 608.678C734.7 608.678 737.8 610.878 741.3 613.477C768 634.376 801.1 649.374 834 655.674C871.4 662.873 912.4 659.573 948.7 646.474C967.2 639.775 999.1 621.977 1011.5 611.278C1014.1 609.078 1015.7 608.278 1016.1 608.978C1016.5 609.678 1017.3 615.377 1017.9 621.777Z" fill="white"/>
<path d="M564 436.693C527.4 468.49 488.7 517.686 467.5 559.282C447.1 599.079 432.9 653.274 427.9 709.669L426.7 723.168L430.8 731.167C446.5 762.364 473.5 801.861 498.7 830.658C522.8 858.156 557.7 889.553 586.8 909.951C614.8 929.649 653.4 950.648 685 963.646C726.5 980.545 771.9 992.244 815 997.143C826.9 998.443 854 1000.44 854 999.943C854 999.943 850.3 996.743 845.8 993.044C818 970.046 785.4 938.549 763.3 913.151C717.2 860.256 678.9 802.661 644.6 734.667C620.9 687.671 606.3 648.474 594.1 598.779C581.4 547.383 574.5 494.688 572.7 436.693L572.5 429.294L564 436.693Z" fill="white"/>
<path d="M1178 434.893C1178 437.793 1177.5 448.992 1177 459.691C1171.5 564.882 1145.9 661.773 1101.8 744.966C1067.5 809.76 1031.1 861.955 983.1 914.851C960.3 940.048 925.2 973.645 900.7 993.544C896.5 997.043 893.1 1000.14 893.4 1000.34C894.7 1001.74 944.3 995.644 964.5 991.544C978.9 988.644 1007.5 981.145 1022 976.445C1123.6 943.448 1212.6 880.354 1275 797.161C1291.8 774.663 1307.1 750.465 1317.5 729.667L1321.7 721.168L1319.9 703.669C1314 646.075 1301.4 598.479 1281.8 559.182C1260.9 517.486 1217.6 462.491 1183.2 433.893L1178 429.494V434.893Z" fill="white"/>
<path d="M2 1198.03V1212.62H12H22V1276.12V1339.61H11H0V1354.11V1368.61H28H56V1343.01V1317.42L71.3 1317.82C85.1 1318.11 87 1318.41 92 1320.71C99.5 1324.21 104.1 1328.41 107.4 1334.91C111.4 1342.91 113 1350.01 113 1360.31V1369.61H140H167V1353.61V1337.61H156.7H146.4L144.5 1332.11C142.1 1324.91 134.2 1311.62 129 1306.02L125 1301.62L130.6 1294.82C136.8 1287.32 143.1 1275.02 145.1 1266.62C146.9 1258.92 146.6 1243.42 144.6 1235.72C138.4 1212.22 121.3 1194.33 97.5 1186.53C90.7 1184.23 89.3 1184.23 46.3 1183.83L2 1183.53V1198.03ZM90.7 1217.02C98.1 1220.42 106.1 1228.32 109.2 1235.32C111.9 1241.42 112.7 1252.92 111 1259.22C109 1266.22 102.7 1274.92 96.7 1278.92C88.9 1284.12 82.6 1285.62 68.3 1285.62H56V1249.52V1213.42L70.3 1213.82C83.4 1214.12 85 1214.32 90.7 1217.02Z" fill="white"/>
<path d="M203 1198.63V1213.62H213H223V1277.12V1340.61H213H203V1355.61V1370.61H266.5H330V1346.11V1321.61H313H296V1331.11V1340.61H278H260V1316.62V1292.62H286H312V1276.62V1260.62H286H260V1237.12V1213.62H278H296V1222.62V1231.62H313H330V1207.62V1183.63H266.5H203V1198.63Z" fill="white"/>
<path d="M443.6 1186.83C442.9 1188.63 430.2 1223.32 415.5 1263.82L388.6 1337.61H378.3H368V1353.61V1369.61H391.9H415.8L420.9 1355.01C423.7 1347.01 426.3 1339.41 426.6 1338.01L427.2 1335.61H462.5H497.8L503.6 1352.61L509.5 1369.61H532.3H555V1353.61V1337.71L544.8 1337.41L534.7 1337.11L507.6 1260.32L480.6 1183.63H462.7H444.9L443.6 1186.83ZM475.5 1270.82C481.8 1288.52 486.7 1303.22 486.6 1303.32C486.4 1303.52 475.7 1303.52 462.8 1303.42L439.3 1303.12L450.2 1272.12C462 1238.12 463.1 1235.52 463.7 1237.32C463.9 1237.92 469.2 1253.02 475.5 1270.82Z" fill="white"/>
<path d="M594 1198.13V1212.62H604H614V1275.12V1337.61H604H594V1353.61V1369.61H657.5H721V1345.61V1321.61H704H687V1329.61V1337.61H669H651V1275.12V1212.62H661H671V1198.13V1183.63H632.5H594V1198.13Z" fill="white"/>
<path d="M827 1198.13V1212.62H837H847V1275.12V1337.61H837H827V1353.61V1369.61H866.5H906V1353.61V1337.61H893.5H881V1327.21V1316.82L898.8 1316.42C914.9 1316.02 917.2 1315.72 924.5 1313.22C936.1 1309.22 942.5 1305.22 951.1 1296.72C964.2 1283.62 970.4 1269.02 970.4 1251.12C970.5 1239.92 969.1 1233.12 964.9 1223.82C958.2 1208.92 947.3 1197.63 932.7 1190.73C918.9 1184.13 914.4 1183.63 867.9 1183.63H827V1198.13ZM911.3 1214.52C927.5 1219.82 937.3 1233.32 937.3 1250.12C937.3 1265.02 929.8 1277.12 916.2 1283.82C909.8 1287.02 909 1287.12 895.3 1287.52L881 1287.82V1250.22V1212.62H893.3C902.7 1212.62 907.1 1213.12 911.3 1214.52Z" fill="white"/>
<path d="M1004 1198.13V1212.62H1014H1024V1275.12V1337.61H1014H1004V1353.61V1369.61H1067H1130V1345.61V1321.61H1113H1096V1329.61V1337.61H1078H1060V1275.12V1212.62H1070H1080V1198.13V1183.63H1042H1004V1198.13Z" fill="white"/>
<path d="M1239.6 1186.83C1238.9 1188.63 1226.2 1223.32 1211.5 1263.92L1184.7 1337.61H1174.4H1164V1353.61V1369.61H1187.9H1211.8L1217.6 1352.61L1223.5 1335.61H1258.6H1293.7L1299.6 1352.61L1305.5 1369.61H1328.2H1351V1353.61V1337.71L1340.8 1337.41L1330.7 1337.11L1303.7 1260.32L1276.7 1183.63H1258.8H1240.9L1239.6 1186.83ZM1271 1270.42L1282.6 1303.12L1259.1 1303.42C1246.3 1303.52 1235.6 1303.52 1235.4 1303.32C1234.8 1302.72 1258.4 1236.62 1258.9 1237.22C1259.2 1237.52 1264.7 1252.42 1271 1270.42Z" fill="white"/>
<path d="M1392 1206.12V1228.62H1409H1426V1220.62V1212.62H1452C1466.3 1212.62 1478 1212.92 1478 1213.22C1478 1213.52 1459.4 1241.02 1436.7 1274.42C1381.9 1354.91 1388 1344.41 1388 1357.61V1368.61H1456H1524V1345.11V1321.61H1508H1492V1330.61V1339.61H1463.5C1447.8 1339.61 1435 1339.41 1435 1339.11C1435 1338.91 1455 1309.82 1479.5 1274.72L1524 1210.72V1197.13V1183.63H1458H1392V1206.12Z" fill="white"/>
<path d="M1635.6 1186.83C1634.9 1188.63 1622.2 1223.32 1607.5 1263.92L1580.7 1337.61H1570.4H1560V1353.61V1369.61H1583.9H1607.8L1613.6 1352.61L1619.5 1335.61H1654.6H1689.7L1695.6 1352.61L1701.4 1369.61H1724.2H1747V1353.61V1337.71L1736.8 1337.41L1726.6 1337.11L1699.7 1260.32L1672.7 1183.63H1654.8H1636.9L1635.6 1186.83ZM1666.5 1270.02C1672.8 1288.02 1678 1302.92 1678 1303.12C1678 1303.42 1667.4 1303.62 1654.5 1303.62C1641.6 1303.62 1631 1303.22 1631 1302.82C1631 1302.22 1647.1 1255.82 1653.5 1237.72C1653.8 1236.92 1654.3 1236.52 1654.5 1236.82C1654.8 1237.12 1660.2 1252.02 1666.5 1270.02Z" fill="white"/>
</svg>
